{
	"asset":{
		"generator":"Khronos glTF Blender I/O v3.5.30",
		"version":"2.0"
	},
	"extensionsUsed":[
		"KHR_lights_punctual"
	],
	"extensionsRequired":[
		"KHR_lights_punctual"
	],
	"extensions":{
		"KHR_lights_punctual":{
			"lights":[
				{
					"color":[
						1,
						1,
						1
					],
					"intensity":54351.41306588226,
					"type":"point",
					"name":"Light"
				}
			]
		}
	},
	"scene":0,
	"scenes":[
		{
			"name":"Scene",
			"nodes":[
				0,
				1
			]
		}
	],
	"nodes":[
		{
			"extensions":{
				"KHR_lights_punctual":{
					"light":0
				}
			},
			"name":"Light",
			"rotation":[
				-0.28416627645492554,
				0.7269423007965088,
				0.34203392267227173,
				0.5232754945755005
			],
			"translation":[
				4.076245307922363,
				5.903861999511719,
				-1.0054539442062378
			]
		},
		{
			"mesh":0,
			"name":"Text",
			"rotation":[
				0.6930484771728516,
				-7.787611684761941e-05,
				0.00040214924956671894,
				0.7208909392356873
			],
			"translation":[
				-1.7070331573486328,
				-0.06339775770902634,
				0.14440828561782837
			]
		}
	],
	"meshes":[
		{
			"name":"Text",
			"primitives":[
				{
					"attributes":{
						"POSITION":0,
						"TEXCOORD_0":1,
						"NORMAL":2
					},
					"indices":3
				}
			]
		}
	],
	"accessors":[
		{
			"bufferView":0,
			"componentType":5126,
			"count":1834,
			"max":[
				3.1740002632141113,
				0.09999999403953552,
				0.009000000543892384
			],
			"min":[
				0.07600000500679016,
				-0.09999999403953552,
				-0.6910000443458557
			],
			"type":"VEC3"
		},
		{
			"bufferView":1,
			"componentType":5126,
			"count":1834,
			"type":"VEC2"
		},
		{
			"bufferView":2,
			"componentType":5126,
			"count":1834,
			"type":"VEC3"
		},
		{
			"bufferView":3,
			"componentType":5123,
			"count":5400,
			"type":"SCALAR"
		}
	],
	"bufferViews":[
		{
			"buffer":0,
			"byteLength":22008,
			"byteOffset":0,
			"target":34962
		},
		{
			"buffer":0,
			"byteLength":14672,
			"byteOffset":22008,
			"target":34962
		},
		{
			"buffer":0,
			"byteLength":22008,
			"byteOffset":36680,
			"target":34962
		},
		{
			"buffer":0,
			"byteLength":10800,
			"byteOffset":58688,
			"target":34963
		}
	],
	"buffers":[
		{
			"byteLength":69488,
			"uri":"data:application/octet-stream;base64,"
		}
	]
}
