{
	"asset":{
		"generator":"Khronos glTF Blender I/O v3.5.30",
		"version":"2.0"
	},
	"scene":0,
	"scenes":[
		{
			"name":"Scene",
			"nodes":[
				0
			]
		}
	],
	"nodes":[
		{
			"mesh":0,
			"name":"Text"
		}
	],
	"meshes":[
		{
			"name":"Text",
			"primitives":[
				{
					"attributes":{
						"POSITION":0,
						"TEXCOORD_0":1,
						"NORMAL":2
					},
					"indices":3
				}
			]
		}
	],
	"accessors":[
		{
			"bufferView":0,
			"componentType":5126,
			"count":455,
			"max":[
				3.1740002632141113,
				0,
				0.009000000543892384
			],
			"min":[
				0.07600000500679016,
				0,
				-0.6910000443458557
			],
			"type":"VEC3"
		},
		{
			"bufferView":1,
			"componentType":5126,
			"count":455,
			"type":"VEC2"
		},
		{
			"bufferView":2,
			"componentType":5126,
			"count":455,
			"type":"VEC3"
		},
		{
			"bufferView":3,
			"componentType":5123,
			"count":1335,
			"type":"SCALAR"
		}
	],
	"bufferViews":[
		{
			"buffer":0,
			"byteLength":5460,
			"byteOffset":0,
			"target":34962
		},
		{
			"buffer":0,
			"byteLength":3640,
			"byteOffset":5460,
			"target":34962
		},
		{
			"buffer":0,
			"byteLength":5460,
			"byteOffset":9100,
			"target":34962
		},
		{
			"buffer":0,
			"byteLength":2670,
			"byteOffset":14560,
			"target":34963
		}
	],
	"buffers":[
		{
			"byteLength":17232,
			"uri":"data:application/octet-stream;base64,"
		}
	]
}
